<svg width="28" height="21" viewBox="0 0 28 21" fill="none" xmlns="http://www.w3.org/2000/svg">
<path d="M13.8636 15.6006C13.0027 15.6006 12.1417 15.3182 11.4074 14.7459L0.530273 6.28809V18.1006C0.530273 19.4808 1.64954 20.6006 3.03027 20.6006H24.6969C26.0777 20.6006 27.1969 19.4813 27.1969 18.1006V6.28809L16.3219 14.7516C15.5876 15.3193 14.723 15.6006 13.8636 15.6006ZM1.37871 4.83496L12.4308 13.4339C13.274 14.0902 14.4553 14.0902 15.2985 13.4339L26.3506 4.83496C26.8376 4.41829 27.1969 3.77767 27.1969 3.10059C27.1969 1.71986 26.0771 0.600586 24.6969 0.600586H3.03027C1.64954 0.600586 0.530273 1.71986 0.530273 3.10059C0.530273 3.77767 0.843294 4.41829 1.37871 4.83496Z" fill="#221C42"/>
</svg>
