<svg width="26" height="26" viewBox="0 0 26 26" fill="none" xmlns="http://www.w3.org/2000/svg">
<path d="M5.49787 11.6156C7.4712 15.4938 10.6436 18.6662 14.5286 20.6395L17.5434 17.6179C17.9203 17.241 18.4616 17.1314 18.9343 17.2821C20.4692 17.7892 22.1205 18.0632 23.8266 18.0632C24.5871 18.0632 25.1969 18.673 25.1969 19.4336V24.2299C25.1969 24.9904 24.5871 25.6003 23.8266 25.6003C10.9588 25.6003 0.530273 15.1717 0.530273 2.30396C0.530273 1.54341 1.14694 0.933594 1.90064 0.933594H6.69694C7.4575 0.933594 8.06731 1.54341 8.06731 2.30396C8.06731 4.01008 8.34138 5.66137 8.84842 7.19619C8.99916 7.66896 8.88953 8.21026 8.51268 8.58711L5.49787 11.6156Z" fill="#221C42"/>
</svg>
