<svg width="33" height="32" viewBox="0 0 33 32" fill="none" xmlns="http://www.w3.org/2000/svg">
<circle cx="16.5079" cy="15.9764" r="15.3885" fill="white" stroke="#FEA439" stroke-width="0.654829"/>
<path d="M17.1808 9.42903C17.6587 9.42719 18.1365 9.432 18.6142 9.44343L18.7413 9.44802C18.888 9.45326 19.0327 9.45981 19.2075 9.46766C19.9043 9.5004 20.3797 9.61042 20.7968 9.77216C21.229 9.93849 21.5931 10.1637 21.9572 10.5278C22.2901 10.855 22.5477 11.2507 22.7122 11.6875C22.8739 12.1047 22.9839 12.5807 23.0167 13.2775C23.0245 13.4516 23.0311 13.597 23.0363 13.7437L23.0402 13.8707C23.0519 14.3482 23.0569 14.8259 23.0553 15.3035L23.056 15.792V16.6498C23.0576 17.1277 23.0526 17.6055 23.0409 18.0833L23.037 18.2103C23.0317 18.357 23.0252 18.5017 23.0173 18.6765C22.9846 19.3733 22.8733 19.8487 22.7122 20.2658C22.5482 20.7031 22.2905 21.0991 21.9572 21.4262C21.6297 21.759 21.2338 22.0167 20.7968 22.1812C20.3797 22.3429 19.9043 22.4529 19.2075 22.4857C19.0327 22.4935 18.888 22.5001 18.7413 22.5053L18.6142 22.5092C18.1365 22.5209 17.6587 22.5259 17.1808 22.5243L16.6923 22.525H15.8351C15.3573 22.5266 14.8794 22.5216 14.4017 22.5099L14.2747 22.506C14.1192 22.5003 13.9638 22.4938 13.8085 22.4863C13.1117 22.4536 12.6363 22.3423 12.2185 22.1812C11.7815 22.017 11.3857 21.7594 11.0588 21.4262C10.7255 21.0989 10.4677 20.7029 10.3031 20.2658C10.1414 19.8487 10.0314 19.3733 9.99865 18.6765C9.99136 18.5212 9.98481 18.3657 9.97901 18.2103L9.97573 18.0833C9.96366 17.6055 9.9582 17.1277 9.95936 16.6498V15.3035C9.95753 14.8259 9.96234 14.3482 9.97377 13.8707L9.97835 13.7437C9.98359 13.597 9.99014 13.4516 9.998 13.2775C10.0307 12.5801 10.1408 12.1053 10.3025 11.6875C10.4671 11.2505 10.7255 10.8549 11.0595 10.5285C11.3862 10.195 11.7817 9.9369 12.2185 9.77216C12.6363 9.61042 13.1111 9.5004 13.8085 9.46766L14.2747 9.44802L14.4017 9.44474C14.8792 9.43268 15.3569 9.42722 15.8345 9.42837L17.1808 9.42903ZM16.5077 12.7032C16.0738 12.697 15.6431 12.7772 15.2405 12.939C14.838 13.1007 14.4716 13.3409 14.1626 13.6455C13.8537 13.9501 13.6083 14.3131 13.4409 14.7133C13.2734 15.1136 13.1872 15.5431 13.1872 15.977C13.1872 16.4109 13.2734 16.8404 13.4409 17.2406C13.6083 17.6409 13.8537 18.0039 14.1626 18.3085C14.4716 18.6131 14.838 18.8533 15.2405 19.015C15.6431 19.1768 16.0738 19.257 16.5077 19.2508C17.376 19.2508 18.2088 18.9059 18.8228 18.2918C19.4369 17.6778 19.7818 16.845 19.7818 15.9767C19.7818 15.1083 19.4369 14.2755 18.8228 13.6615C18.2088 13.0475 17.376 12.7032 16.5077 12.7032ZM16.5077 14.0128C16.7686 14.008 17.0279 14.0553 17.2704 14.1518C17.5129 14.2483 17.7337 14.3922 17.92 14.575C18.1062 14.7579 18.2542 14.976 18.3552 15.2166C18.4562 15.4573 18.5083 15.7157 18.5083 15.9767C18.5084 16.2377 18.4564 16.4961 18.3555 16.7367C18.2545 16.9774 18.1067 17.1956 17.9205 17.3785C17.7343 17.5614 17.5135 17.7053 17.271 17.8019C17.0286 17.8986 16.7693 17.9459 16.5083 17.9412C15.9873 17.9412 15.4876 17.7342 15.1192 17.3658C14.7508 16.9974 14.5438 16.4977 14.5438 15.9767C14.5438 15.4557 14.7508 14.956 15.1192 14.5876C15.4876 14.2192 15.9873 14.0122 16.5083 14.0122L16.5077 14.0128ZM19.9455 11.7209C19.7343 11.7294 19.5345 11.8193 19.388 11.9717C19.2415 12.1242 19.1597 12.3274 19.1597 12.5388C19.1597 12.7502 19.2415 12.9535 19.388 13.1059C19.5345 13.2584 19.7343 13.3482 19.9455 13.3567C20.1626 13.3567 20.3708 13.2705 20.5243 13.117C20.6778 12.9634 20.7641 12.7552 20.7641 12.5382C20.7641 12.3211 20.6778 12.1129 20.5243 11.9594C20.3708 11.8059 20.1626 11.7196 19.9455 11.7196V11.7209Z" fill="#FEA439"/>
</svg>
