<svg width="898" height="675" viewBox="0 0 898 675" fill="none" xmlns="http://www.w3.org/2000/svg">
<path d="M348.305 471.241V489.721H343.881L337.413 478.857L335.817 475.833H335.789L335.901 479.025V489.721H332.429V471.241H336.825L343.293 482.077L344.889 485.129H344.945L344.833 481.937V471.241H348.305ZM359.544 475.441C360.963 475.441 362.204 475.731 363.268 476.309C364.351 476.888 365.191 477.719 365.788 478.801C366.404 479.884 366.712 481.191 366.712 482.721C366.712 484.233 366.404 485.54 365.788 486.641C365.191 487.724 364.351 488.555 363.268 489.133C362.204 489.712 360.963 490.001 359.544 490.001C358.144 490.001 356.903 489.712 355.82 489.133C354.737 488.555 353.888 487.724 353.272 486.641C352.675 485.54 352.376 484.233 352.376 482.721C352.376 481.191 352.675 479.884 353.272 478.801C353.888 477.719 354.737 476.888 355.82 476.309C356.903 475.731 358.144 475.441 359.544 475.441ZM359.544 478.297C358.835 478.297 358.228 478.465 357.724 478.801C357.239 479.119 356.865 479.604 356.604 480.257C356.343 480.911 356.212 481.732 356.212 482.721C356.212 483.711 356.343 484.532 356.604 485.185C356.865 485.839 357.239 486.333 357.724 486.669C358.228 486.987 358.835 487.145 359.544 487.145C360.235 487.145 360.823 486.987 361.308 486.669C361.812 486.333 362.195 485.839 362.456 485.185C362.717 484.532 362.848 483.711 362.848 482.721C362.848 481.732 362.717 480.911 362.456 480.257C362.195 479.604 361.812 479.119 361.308 478.801C360.823 478.465 360.235 478.297 359.544 478.297ZM379.6 489.721V475.721H382.932L383.184 478.465C383.558 477.495 384.099 476.748 384.808 476.225C385.536 475.703 386.442 475.441 387.524 475.441C387.842 475.441 388.131 475.469 388.392 475.525C388.654 475.581 388.868 475.656 389.036 475.749L388.588 478.969C388.402 478.895 388.168 478.839 387.888 478.801C387.627 478.764 387.282 478.745 386.852 478.745C386.292 478.745 385.751 478.885 385.228 479.165C384.706 479.427 384.276 479.837 383.94 480.397C383.604 480.939 383.436 481.629 383.436 482.469V489.721H379.6ZM398.195 490.001C396.721 490.001 395.433 489.712 394.331 489.133C393.249 488.555 392.409 487.724 391.811 486.641C391.214 485.559 390.915 484.252 390.915 482.721C390.915 481.191 391.214 479.884 391.811 478.801C392.409 477.719 393.239 476.888 394.303 476.309C395.386 475.731 396.618 475.441 397.999 475.441C399.418 475.441 400.622 475.731 401.611 476.309C402.601 476.869 403.357 477.644 403.879 478.633C404.402 479.604 404.663 480.715 404.663 481.965C404.663 482.339 404.654 482.693 404.635 483.029C404.617 483.365 404.589 483.664 404.551 483.925H393.379V481.265H402.871L401.023 481.937C401.023 480.761 400.753 479.856 400.211 479.221C399.689 478.587 398.942 478.269 397.971 478.269C397.262 478.269 396.646 478.437 396.123 478.773C395.619 479.109 395.237 479.613 394.975 480.285C394.714 480.939 394.583 481.769 394.583 482.777C394.583 483.767 394.723 484.588 395.003 485.241C395.302 485.876 395.713 486.352 396.235 486.669C396.777 486.987 397.421 487.145 398.167 487.145C398.989 487.145 399.651 486.987 400.155 486.669C400.659 486.352 401.051 485.913 401.331 485.353L404.383 486.529C404.085 487.257 403.627 487.883 403.011 488.405C402.414 488.928 401.695 489.329 400.855 489.609C400.034 489.871 399.147 490.001 398.195 490.001ZM414.074 490.001C412.656 490.001 411.358 489.749 410.182 489.245C409.025 488.741 408.082 488.032 407.354 487.117L409.566 484.877C410.014 485.549 410.612 486.1 411.358 486.529C412.105 486.959 412.992 487.173 414.018 487.173C414.746 487.173 415.325 487.071 415.754 486.865C416.202 486.641 416.426 486.296 416.426 485.829C416.426 485.531 416.324 485.279 416.118 485.073C415.913 484.849 415.502 484.672 414.886 484.541L412.422 484.037C410.798 483.701 409.641 483.197 408.95 482.525C408.278 481.835 407.942 480.948 407.942 479.865C407.942 479.1 408.166 478.381 408.614 477.709C409.081 477.037 409.772 476.496 410.686 476.085C411.601 475.656 412.74 475.441 414.102 475.441C415.502 475.441 416.716 475.665 417.742 476.113C418.788 476.543 419.609 477.187 420.206 478.045L417.91 480.285C417.5 479.632 416.958 479.137 416.286 478.801C415.633 478.447 414.942 478.269 414.214 478.269C413.692 478.269 413.244 478.325 412.87 478.437C412.497 478.549 412.217 478.708 412.03 478.913C411.844 479.1 411.75 479.343 411.75 479.641C411.75 479.94 411.881 480.201 412.142 480.425C412.404 480.631 412.88 480.808 413.57 480.957L416.426 481.545C417.808 481.825 418.797 482.301 419.394 482.973C419.992 483.627 420.29 484.42 420.29 485.353C420.29 486.249 420.048 487.052 419.562 487.761C419.096 488.452 418.396 489.003 417.462 489.413C416.548 489.805 415.418 490.001 414.074 490.001ZM428.781 490.001C427.848 490.001 427.008 489.833 426.261 489.497C425.515 489.161 424.917 488.629 424.469 487.901C424.04 487.155 423.825 486.193 423.825 485.017V475.721H427.661V484.093C427.661 485.176 427.885 485.932 428.333 486.361C428.781 486.772 429.425 486.977 430.265 486.977C430.657 486.977 431.04 486.912 431.413 486.781C431.787 486.632 432.113 486.408 432.393 486.109C432.692 485.811 432.925 485.428 433.093 484.961C433.261 484.476 433.345 483.907 433.345 483.253V475.721H437.181V489.721H433.765L433.625 487.285C433.159 488.219 432.515 488.909 431.693 489.357C430.891 489.787 429.92 490.001 428.781 490.001ZM445.558 469.589V485.409C445.558 486.063 445.67 486.52 445.894 486.781C446.118 487.043 446.491 487.173 447.014 487.173C447.331 487.173 447.592 487.155 447.798 487.117C448.003 487.061 448.264 486.987 448.582 486.893L448.246 489.413C447.928 489.6 447.527 489.74 447.042 489.833C446.575 489.945 446.108 490.001 445.642 490.001C444.279 490.001 443.28 489.675 442.646 489.021C442.03 488.349 441.722 487.285 441.722 485.829V469.589H445.558ZM455.743 471.437V485.157C455.743 485.829 455.911 486.324 456.247 486.641C456.602 486.94 457.078 487.089 457.675 487.089C458.142 487.089 458.552 487.024 458.907 486.893C459.262 486.744 459.579 486.548 459.859 486.305L460.475 488.853C460.027 489.208 459.467 489.488 458.795 489.693C458.123 489.899 457.414 490.001 456.667 490.001C455.734 490.001 454.903 489.861 454.175 489.581C453.466 489.301 452.906 488.853 452.495 488.237C452.103 487.621 451.907 486.8 451.907 485.773V472.501L455.743 471.437ZM460.223 475.721V478.577H449.331V475.721H460.223ZM468.978 490.001C467.56 490.001 466.262 489.749 465.086 489.245C463.929 488.741 462.986 488.032 462.258 487.117L464.47 484.877C464.918 485.549 465.516 486.1 466.262 486.529C467.009 486.959 467.896 487.173 468.922 487.173C469.65 487.173 470.229 487.071 470.658 486.865C471.106 486.641 471.33 486.296 471.33 485.829C471.33 485.531 471.228 485.279 471.022 485.073C470.817 484.849 470.406 484.672 469.79 484.541L467.326 484.037C465.702 483.701 464.545 483.197 463.854 482.525C463.182 481.835 462.846 480.948 462.846 479.865C462.846 479.1 463.07 478.381 463.518 477.709C463.985 477.037 464.676 476.496 465.59 476.085C466.505 475.656 467.644 475.441 469.006 475.441C470.406 475.441 471.62 475.665 472.646 476.113C473.692 476.543 474.513 477.187 475.11 478.045L472.814 480.285C472.404 479.632 471.862 479.137 471.19 478.801C470.537 478.447 469.846 478.269 469.118 478.269C468.596 478.269 468.148 478.325 467.774 478.437C467.401 478.549 467.121 478.708 466.934 478.913C466.748 479.1 466.654 479.343 466.654 479.641C466.654 479.94 466.785 480.201 467.046 480.425C467.308 480.631 467.784 480.808 468.474 480.957L471.33 481.545C472.712 481.825 473.701 482.301 474.298 482.973C474.896 483.627 475.194 484.42 475.194 485.353C475.194 486.249 474.952 487.052 474.466 487.761C474 488.452 473.3 489.003 472.366 489.413C471.452 489.805 470.322 490.001 468.978 490.001ZM493.848 469.309C494.501 469.309 495.089 469.384 495.612 469.533C496.153 469.664 496.554 469.832 496.816 470.037L496.284 472.585C496.078 472.455 495.845 472.352 495.584 472.277C495.322 472.203 495.014 472.165 494.66 472.165C493.932 472.165 493.353 472.333 492.924 472.669C492.494 472.987 492.28 473.537 492.28 474.321V476.253L492.448 477.009V489.721H488.612V474.041C488.612 473.257 488.742 472.567 489.004 471.969C489.265 471.372 489.629 470.877 490.096 470.485C490.562 470.093 491.113 469.804 491.748 469.617C492.401 469.412 493.101 469.309 493.848 469.309ZM496.704 475.721V478.577H486.176V475.721H496.704ZM505.704 475.441C507.123 475.441 508.364 475.731 509.428 476.309C510.511 476.888 511.351 477.719 511.948 478.801C512.564 479.884 512.872 481.191 512.872 482.721C512.872 484.233 512.564 485.54 511.948 486.641C511.351 487.724 510.511 488.555 509.428 489.133C508.364 489.712 507.123 490.001 505.704 490.001C504.304 490.001 503.063 489.712 501.98 489.133C500.897 488.555 500.048 487.724 499.432 486.641C498.835 485.54 498.536 484.233 498.536 482.721C498.536 481.191 498.835 479.884 499.432 478.801C500.048 477.719 500.897 476.888 501.98 476.309C503.063 475.731 504.304 475.441 505.704 475.441ZM505.704 478.297C504.995 478.297 504.388 478.465 503.884 478.801C503.399 479.119 503.025 479.604 502.764 480.257C502.503 480.911 502.372 481.732 502.372 482.721C502.372 483.711 502.503 484.532 502.764 485.185C503.025 485.839 503.399 486.333 503.884 486.669C504.388 486.987 504.995 487.145 505.704 487.145C506.395 487.145 506.983 486.987 507.468 486.669C507.972 486.333 508.355 485.839 508.616 485.185C508.877 484.532 509.008 483.711 509.008 482.721C509.008 481.732 508.877 480.911 508.616 480.257C508.355 479.604 507.972 479.119 507.468 478.801C506.983 478.465 506.395 478.297 505.704 478.297ZM521.514 490.001C520.58 490.001 519.74 489.833 518.994 489.497C518.247 489.161 517.65 488.629 517.202 487.901C516.772 487.155 516.558 486.193 516.558 485.017V475.721H520.394V484.093C520.394 485.176 520.618 485.932 521.066 486.361C521.514 486.772 522.158 486.977 522.998 486.977C523.39 486.977 523.772 486.912 524.146 486.781C524.519 486.632 524.846 486.408 525.126 486.109C525.424 485.811 525.658 485.428 525.826 484.961C525.994 484.476 526.078 483.907 526.078 483.253V475.721H529.914V489.721H526.498L526.358 487.285C525.891 488.219 525.247 488.909 524.426 489.357C523.623 489.787 522.652 490.001 521.514 490.001ZM534.51 489.721V475.721H537.954L538.178 479.921L537.702 479.473C537.926 478.559 538.281 477.803 538.766 477.205C539.252 476.608 539.84 476.169 540.53 475.889C541.24 475.591 542.014 475.441 542.854 475.441C543.825 475.441 544.684 475.628 545.43 476.001C546.196 476.375 546.793 476.944 547.222 477.709C547.67 478.456 547.894 479.399 547.894 480.537V489.721H544.058V481.629C544.058 480.435 543.825 479.613 543.358 479.165C542.892 478.699 542.285 478.465 541.538 478.465C541.016 478.465 540.502 478.596 539.998 478.857C539.513 479.1 539.112 479.501 538.794 480.061C538.496 480.621 538.346 481.368 538.346 482.301V489.721H534.51ZM557.698 490.001C556.541 490.001 555.505 489.712 554.59 489.133C553.694 488.555 552.985 487.724 552.462 486.641C551.958 485.559 551.706 484.261 551.706 482.749C551.706 481.2 551.977 479.884 552.518 478.801C553.06 477.7 553.788 476.869 554.702 476.309C555.636 475.731 556.681 475.441 557.838 475.441C559.07 475.441 560.088 475.796 560.89 476.505C561.693 477.215 562.216 478.129 562.458 479.249L562.094 479.697V469.589H565.93V489.721H562.486L562.234 485.465L562.71 485.689C562.58 486.567 562.281 487.332 561.814 487.985C561.348 488.62 560.76 489.115 560.05 489.469C559.341 489.824 558.557 490.001 557.698 490.001ZM558.818 487.061C559.49 487.061 560.069 486.893 560.554 486.557C561.04 486.203 561.413 485.689 561.674 485.017C561.954 484.345 562.094 483.543 562.094 482.609C562.094 481.713 561.964 480.957 561.702 480.341C561.441 479.707 561.068 479.221 560.582 478.885C560.097 478.549 559.528 478.381 558.874 478.381C557.829 478.381 557.008 478.755 556.41 479.501C555.832 480.229 555.542 481.303 555.542 482.721C555.542 484.14 555.832 485.223 556.41 485.969C556.989 486.697 557.792 487.061 558.818 487.061Z" fill="#221C42"/>
<path d="M244.922 514.189C246.082 514.189 247.082 514.429 247.922 514.909C248.762 515.376 249.462 516.069 250.022 516.989L248.682 518.029C248.189 517.176 247.629 516.576 247.002 516.229C246.389 515.869 245.642 515.689 244.762 515.689C244.055 515.689 243.469 515.789 243.002 515.989C242.549 516.189 242.215 516.456 242.002 516.789C241.789 517.109 241.682 517.476 241.682 517.889C241.682 518.356 241.829 518.769 242.122 519.129C242.415 519.476 243.002 519.749 243.882 519.949L246.742 520.589C248.009 520.869 248.889 521.296 249.382 521.869C249.889 522.429 250.142 523.129 250.142 523.969C250.142 524.716 249.929 525.383 249.502 525.969C249.089 526.543 248.502 526.989 247.742 527.309C246.982 527.629 246.089 527.789 245.062 527.789C244.102 527.789 243.255 527.663 242.522 527.409C241.802 527.143 241.182 526.789 240.662 526.349C240.142 525.909 239.715 525.416 239.382 524.869L240.782 523.729C241.035 524.236 241.362 524.683 241.762 525.069C242.162 525.456 242.642 525.756 243.202 525.969C243.775 526.183 244.429 526.289 245.162 526.289C245.842 526.289 246.429 526.209 246.922 526.049C247.429 525.876 247.815 525.629 248.082 525.309C248.349 524.976 248.482 524.576 248.482 524.109C248.482 523.683 248.342 523.303 248.062 522.969C247.782 522.623 247.255 522.363 246.482 522.189L243.382 521.489C242.569 521.303 241.909 521.049 241.402 520.729C240.909 520.396 240.549 520.009 240.322 519.569C240.109 519.116 240.002 518.629 240.002 518.109C240.002 517.403 240.195 516.756 240.582 516.169C240.982 515.569 241.549 515.089 242.282 514.729C243.029 514.369 243.909 514.189 244.922 514.189ZM257.334 517.389C258.281 517.389 259.114 517.596 259.834 518.009C260.568 518.423 261.141 519.023 261.554 519.809C261.968 520.583 262.174 521.509 262.174 522.589C262.174 523.669 261.968 524.603 261.554 525.389C261.141 526.163 260.568 526.756 259.834 527.169C259.114 527.583 258.281 527.789 257.334 527.789C256.401 527.789 255.568 527.583 254.834 527.169C254.101 526.756 253.528 526.163 253.114 525.389C252.701 524.603 252.494 523.669 252.494 522.589C252.494 521.509 252.701 520.583 253.114 519.809C253.528 519.023 254.101 518.423 254.834 518.009C255.568 517.596 256.401 517.389 257.334 517.389ZM257.334 518.769C256.654 518.769 256.074 518.923 255.594 519.229C255.114 519.536 254.741 519.976 254.474 520.549C254.221 521.109 254.094 521.789 254.094 522.589C254.094 523.376 254.221 524.056 254.474 524.629C254.741 525.203 255.114 525.643 255.594 525.949C256.074 526.256 256.654 526.409 257.334 526.409C258.014 526.409 258.594 526.256 259.074 525.949C259.554 525.643 259.921 525.203 260.174 524.629C260.441 524.056 260.574 523.376 260.574 522.589C260.574 521.789 260.441 521.109 260.174 520.549C259.921 519.976 259.554 519.536 259.074 519.229C258.594 518.923 258.014 518.769 257.334 518.769ZM265.187 527.589V517.589H266.487L266.707 519.229C266.987 518.616 267.393 518.156 267.927 517.849C268.473 517.543 269.133 517.389 269.907 517.389C270.08 517.389 270.267 517.403 270.467 517.429C270.68 517.456 270.86 517.509 271.007 517.589L270.727 519.049C270.58 518.996 270.42 518.956 270.247 518.929C270.073 518.903 269.827 518.889 269.507 518.889C269.093 518.889 268.673 519.009 268.247 519.249C267.833 519.489 267.487 519.856 267.207 520.349C266.927 520.829 266.787 521.443 266.787 522.189V527.589H265.187ZM273.351 527.589V517.589H274.651L274.871 519.229C275.151 518.616 275.557 518.156 276.091 517.849C276.637 517.543 277.297 517.389 278.071 517.389C278.244 517.389 278.431 517.403 278.631 517.429C278.844 517.456 279.024 517.509 279.171 517.589L278.891 519.049C278.744 518.996 278.584 518.956 278.411 518.929C278.237 518.903 277.991 518.889 277.671 518.889C277.257 518.889 276.837 519.009 276.411 519.249C275.997 519.489 275.651 519.856 275.371 520.349C275.091 520.829 274.951 521.443 274.951 522.189V527.589H273.351ZM289.735 517.589L285.035 529.269C284.781 529.923 284.501 530.436 284.195 530.809C283.901 531.196 283.568 531.469 283.195 531.629C282.835 531.803 282.415 531.889 281.935 531.889C281.481 531.889 281.061 531.823 280.675 531.689C280.301 531.569 279.968 531.403 279.675 531.189L280.115 529.789C280.381 530.029 280.661 530.203 280.955 530.309C281.261 530.429 281.561 530.489 281.855 530.489C282.201 530.489 282.528 530.383 282.835 530.169C283.141 529.956 283.421 529.523 283.675 528.869L284.195 527.569L283.195 525.189L280.015 517.589H281.835L284.335 524.109L284.955 525.889L285.675 523.909L288.015 517.589H289.735ZM310.227 517.589H312.007L308.527 527.589H306.927L304.107 519.629L301.447 527.589H299.847L296.367 517.589H298.147L300.667 525.729L303.387 517.589H304.987L307.707 525.729L310.227 517.589ZM318.273 527.789C317.326 527.789 316.48 527.583 315.733 527.169C315 526.756 314.426 526.163 314.013 525.389C313.6 524.603 313.393 523.669 313.393 522.589C313.393 521.509 313.6 520.583 314.013 519.809C314.426 519.023 314.993 518.423 315.713 518.009C316.433 517.596 317.253 517.389 318.173 517.389C319.106 517.389 319.9 517.589 320.553 517.989C321.22 518.389 321.726 518.936 322.073 519.629C322.42 520.309 322.593 521.076 322.593 521.929C322.593 522.156 322.586 522.363 322.573 522.549C322.56 522.736 322.54 522.903 322.513 523.049H314.433V521.629H321.813L320.993 521.789C320.993 520.829 320.726 520.089 320.193 519.569C319.673 519.049 318.986 518.789 318.133 518.789C317.48 518.789 316.913 518.943 316.433 519.249C315.966 519.543 315.6 519.976 315.333 520.549C315.08 521.109 314.953 521.789 314.953 522.589C314.953 523.376 315.086 524.056 315.353 524.629C315.62 525.203 315.993 525.643 316.473 525.949C316.966 526.243 317.553 526.389 318.233 526.389C318.966 526.389 319.56 526.249 320.013 525.969C320.48 525.689 320.853 525.309 321.133 524.829L322.393 525.569C322.14 526.023 321.813 526.416 321.413 526.749C321.026 527.083 320.566 527.343 320.033 527.529C319.513 527.703 318.926 527.789 318.273 527.789ZM336.592 517.389C337.286 517.389 337.892 517.496 338.412 517.709C338.946 517.923 339.406 518.229 339.792 518.629C340.179 519.029 340.492 519.503 340.732 520.049L339.212 520.769C338.999 520.129 338.672 519.643 338.232 519.309C337.806 518.963 337.246 518.789 336.552 518.789C335.886 518.789 335.312 518.943 334.832 519.249C334.352 519.543 333.986 519.976 333.732 520.549C333.479 521.109 333.352 521.789 333.352 522.589C333.352 523.376 333.479 524.056 333.732 524.629C333.986 525.203 334.352 525.643 334.832 525.949C335.312 526.243 335.886 526.389 336.552 526.389C337.072 526.389 337.519 526.309 337.892 526.149C338.279 525.989 338.592 525.756 338.832 525.449C339.086 525.143 339.259 524.769 339.352 524.329L340.832 524.849C340.606 525.463 340.292 525.989 339.892 526.429C339.506 526.869 339.032 527.209 338.472 527.449C337.926 527.676 337.299 527.789 336.592 527.789C335.659 527.789 334.826 527.583 334.092 527.169C333.359 526.756 332.786 526.163 332.372 525.389C331.959 524.603 331.752 523.669 331.752 522.589C331.752 521.509 331.959 520.583 332.372 519.809C332.786 519.023 333.359 518.423 334.092 518.009C334.826 517.596 335.659 517.389 336.592 517.389ZM347.784 517.389C348.73 517.389 349.564 517.596 350.284 518.009C351.017 518.423 351.59 519.023 352.004 519.809C352.417 520.583 352.624 521.509 352.624 522.589C352.624 523.669 352.417 524.603 352.004 525.389C351.59 526.163 351.017 526.756 350.284 527.169C349.564 527.583 348.73 527.789 347.784 527.789C346.85 527.789 346.017 527.583 345.284 527.169C344.55 526.756 343.977 526.163 343.564 525.389C343.15 524.603 342.944 523.669 342.944 522.589C342.944 521.509 343.15 520.583 343.564 519.809C343.977 519.023 344.55 518.423 345.284 518.009C346.017 517.596 346.85 517.389 347.784 517.389ZM347.784 518.769C347.104 518.769 346.524 518.923 346.044 519.229C345.564 519.536 345.19 519.976 344.924 520.549C344.67 521.109 344.544 521.789 344.544 522.589C344.544 523.376 344.67 524.056 344.924 524.629C345.19 525.203 345.564 525.643 346.044 525.949C346.524 526.256 347.104 526.409 347.784 526.409C348.464 526.409 349.044 526.256 349.524 525.949C350.004 525.643 350.37 525.203 350.624 524.629C350.89 524.056 351.024 523.376 351.024 522.589C351.024 521.789 350.89 521.109 350.624 520.549C350.37 519.976 350.004 519.536 349.524 519.229C349.044 518.923 348.464 518.769 347.784 518.769ZM359.256 527.789C358.616 527.789 358.009 527.669 357.436 527.429C356.876 527.189 356.416 526.803 356.056 526.269C355.709 525.723 355.536 525.016 355.536 524.149V517.589H357.136V523.729C357.136 524.743 357.356 525.443 357.796 525.829C358.236 526.203 358.856 526.389 359.656 526.389C360.029 526.389 360.396 526.329 360.756 526.209C361.116 526.076 361.436 525.876 361.716 525.609C362.009 525.329 362.236 524.976 362.396 524.549C362.569 524.123 362.656 523.616 362.656 523.029V517.589H364.256V527.589H362.856L362.756 526.069C362.409 526.669 361.936 527.109 361.336 527.389C360.749 527.656 360.056 527.789 359.256 527.789ZM369.5 512.989V525.049C369.5 525.556 369.593 525.909 369.78 526.109C369.966 526.296 370.266 526.389 370.68 526.389C370.946 526.389 371.166 526.369 371.34 526.329C371.513 526.289 371.746 526.216 372.04 526.109L371.78 527.509C371.566 527.603 371.333 527.669 371.08 527.709C370.826 527.763 370.566 527.789 370.3 527.789C369.486 527.789 368.88 527.569 368.48 527.129C368.093 526.689 367.9 526.016 367.9 525.109V512.989H369.5ZM377.993 527.789C377.166 527.789 376.406 527.583 375.713 527.169C375.02 526.756 374.466 526.163 374.053 525.389C373.64 524.603 373.433 523.669 373.433 522.589C373.433 521.483 373.653 520.543 374.093 519.769C374.533 518.996 375.113 518.409 375.833 518.009C376.553 517.596 377.326 517.389 378.153 517.389C378.98 517.389 379.693 517.603 380.293 518.029C380.906 518.456 381.313 519.023 381.513 519.729L381.313 519.869V512.989H382.913V527.589H381.513L381.373 525.169L381.593 525.049C381.5 525.636 381.273 526.136 380.913 526.549C380.566 526.949 380.133 527.256 379.613 527.469C379.106 527.683 378.566 527.789 377.993 527.789ZM378.153 526.389C378.793 526.389 379.346 526.229 379.813 525.909C380.293 525.589 380.66 525.136 380.913 524.549C381.18 523.949 381.313 523.249 381.313 522.449C381.313 521.689 381.18 521.036 380.913 520.489C380.66 519.943 380.3 519.523 379.833 519.229C379.38 518.936 378.846 518.789 378.233 518.789C377.22 518.789 376.433 519.136 375.873 519.829C375.313 520.523 375.033 521.443 375.033 522.589C375.033 523.736 375.306 524.656 375.853 525.349C376.4 526.043 377.166 526.389 378.153 526.389ZM386.632 527.589V517.589H388.032L388.172 519.829L387.912 519.609C388.125 519.076 388.412 518.649 388.772 518.329C389.132 517.996 389.545 517.756 390.012 517.609C390.492 517.463 390.985 517.389 391.492 517.389C392.212 517.389 392.865 517.529 393.452 517.809C394.039 518.076 394.505 518.489 394.852 519.049C395.212 519.609 395.392 520.323 395.392 521.189V527.589H393.792V521.749C393.792 520.643 393.552 519.876 393.072 519.449C392.605 519.009 392.025 518.789 391.332 518.789C390.852 518.789 390.372 518.903 389.892 519.129C389.412 519.356 389.012 519.723 388.692 520.229C388.385 520.736 388.232 521.416 388.232 522.269V527.589H386.632ZM398.779 513.589C399.099 513.589 399.365 513.676 399.579 513.849C399.805 514.009 399.979 514.236 400.099 514.529C400.219 514.809 400.279 515.143 400.279 515.529C400.279 515.969 400.199 516.403 400.039 516.829C399.892 517.256 399.659 517.649 399.339 518.009C399.019 518.369 398.605 518.669 398.099 518.909L397.259 518.129C397.619 518.009 397.932 517.843 398.199 517.629C398.479 517.416 398.705 517.176 398.879 516.909C399.052 516.643 399.165 516.369 399.219 516.089L399.139 516.049C399.085 516.089 399.019 516.123 398.939 516.149C398.859 516.176 398.739 516.189 398.579 516.189C398.419 516.189 398.252 516.143 398.079 516.049C397.919 515.956 397.779 515.823 397.659 515.649C397.539 515.463 397.479 515.223 397.479 514.929C397.479 514.689 397.539 514.469 397.659 514.269C397.779 514.056 397.932 513.889 398.119 513.769C398.319 513.649 398.539 513.589 398.779 513.589ZM405.476 514.749V524.829C405.476 525.323 405.616 525.689 405.896 525.929C406.176 526.169 406.536 526.289 406.976 526.289C407.363 526.289 407.696 526.223 407.976 526.089C408.256 525.956 408.51 525.776 408.736 525.549L409.296 526.889C408.99 527.169 408.623 527.389 408.196 527.549C407.783 527.709 407.303 527.789 406.756 527.789C406.25 527.789 405.776 527.703 405.336 527.529C404.896 527.343 404.543 527.056 404.276 526.669C404.023 526.269 403.89 525.749 403.876 525.109V515.189L405.476 514.749ZM409.116 517.589V518.969H401.876V517.589H409.116ZM422.001 512.889C422.347 512.889 422.674 512.929 422.981 513.009C423.287 513.089 423.527 513.203 423.701 513.349L423.281 514.649C423.121 514.543 422.947 514.469 422.761 514.429C422.574 514.376 422.367 514.349 422.141 514.349C421.567 514.349 421.121 514.489 420.801 514.769C420.481 515.036 420.321 515.469 420.321 516.069V517.589V518.109V527.589H418.721V515.909C418.721 515.469 418.787 515.063 418.921 514.689C419.054 514.316 419.254 513.996 419.521 513.729C419.801 513.463 420.147 513.256 420.561 513.109C420.974 512.963 421.454 512.889 422.001 512.889ZM423.661 517.589V518.969H416.721V517.589H423.661ZM426.601 515.669C426.241 515.669 425.947 515.563 425.721 515.349C425.507 515.123 425.401 514.829 425.401 514.469C425.401 514.109 425.507 513.823 425.721 513.609C425.947 513.383 426.241 513.269 426.601 513.269C426.961 513.269 427.247 513.383 427.461 513.609C427.687 513.823 427.801 514.109 427.801 514.469C427.801 514.829 427.687 515.123 427.461 515.349C427.247 515.563 426.961 515.669 426.601 515.669ZM427.401 517.589V527.589H425.801V517.589H427.401ZM431.124 527.589V517.589H432.524L432.664 519.829L432.404 519.609C432.617 519.076 432.904 518.649 433.264 518.329C433.624 517.996 434.037 517.756 434.504 517.609C434.984 517.463 435.477 517.389 435.984 517.389C436.704 517.389 437.357 517.529 437.944 517.809C438.531 518.076 438.997 518.489 439.344 519.049C439.704 519.609 439.884 520.323 439.884 521.189V527.589H438.284V521.749C438.284 520.643 438.044 519.876 437.564 519.449C437.097 519.009 436.517 518.789 435.824 518.789C435.344 518.789 434.864 518.903 434.384 519.129C433.904 519.356 433.504 519.723 433.184 520.229C432.877 520.736 432.724 521.416 432.724 522.269V527.589H431.124ZM447.407 527.789C446.58 527.789 445.82 527.583 445.127 527.169C444.434 526.756 443.88 526.163 443.467 525.389C443.054 524.603 442.847 523.669 442.847 522.589C442.847 521.483 443.067 520.543 443.507 519.769C443.947 518.996 444.527 518.409 445.247 518.009C445.967 517.596 446.74 517.389 447.567 517.389C448.394 517.389 449.107 517.603 449.707 518.029C450.32 518.456 450.727 519.023 450.927 519.729L450.727 519.869V512.989H452.327V527.589H450.927L450.787 525.169L451.007 525.049C450.914 525.636 450.687 526.136 450.327 526.549C449.98 526.949 449.547 527.256 449.027 527.469C448.52 527.683 447.98 527.789 447.407 527.789ZM447.567 526.389C448.207 526.389 448.76 526.229 449.227 525.909C449.707 525.589 450.074 525.136 450.327 524.549C450.594 523.949 450.727 523.249 450.727 522.449C450.727 521.689 450.594 521.036 450.327 520.489C450.074 519.943 449.714 519.523 449.247 519.229C448.794 518.936 448.26 518.789 447.647 518.789C446.634 518.789 445.847 519.136 445.287 519.829C444.727 520.523 444.447 521.443 444.447 522.589C444.447 523.736 444.72 524.656 445.267 525.349C445.814 526.043 446.58 526.389 447.567 526.389ZM474.953 517.589H476.733L473.253 527.589H471.653L468.833 519.629L466.173 527.589H464.573L461.093 517.589H462.873L465.393 525.729L468.113 517.589H469.713L472.433 525.729L474.953 517.589ZM479.132 527.589V512.989H480.732V519.089C481.079 518.489 481.539 518.056 482.112 517.789C482.685 517.523 483.312 517.389 483.992 517.389C484.712 517.389 485.365 517.529 485.952 517.809C486.539 518.076 487.005 518.489 487.352 519.049C487.712 519.609 487.892 520.323 487.892 521.189V527.589H486.292V521.749C486.292 520.643 486.052 519.876 485.572 519.449C485.105 519.009 484.525 518.789 483.832 518.789C483.352 518.789 482.872 518.903 482.392 519.129C481.912 519.356 481.512 519.729 481.192 520.249C480.885 520.756 480.732 521.436 480.732 522.289V527.589H479.132ZM497.355 521.129C497.355 520.383 497.155 519.809 496.755 519.409C496.355 518.996 495.788 518.789 495.055 518.789C494.361 518.789 493.775 518.943 493.295 519.249C492.815 519.543 492.461 520.023 492.235 520.689L490.935 519.889C491.201 519.143 491.695 518.543 492.415 518.089C493.135 517.623 494.028 517.389 495.095 517.389C495.815 517.389 496.468 517.516 497.055 517.769C497.641 518.009 498.101 518.383 498.435 518.889C498.781 519.383 498.955 520.023 498.955 520.809V525.649C498.955 526.129 499.208 526.369 499.715 526.369C499.968 526.369 500.215 526.336 500.455 526.269L500.375 527.529C500.108 527.663 499.761 527.729 499.335 527.729C498.948 527.729 498.601 527.656 498.295 527.509C497.988 527.363 497.748 527.143 497.575 526.849C497.401 526.543 497.315 526.163 497.315 525.709V525.509L497.715 525.569C497.555 526.089 497.281 526.516 496.895 526.849C496.508 527.169 496.075 527.409 495.595 527.569C495.115 527.716 494.641 527.789 494.175 527.789C493.588 527.789 493.041 527.689 492.535 527.489C492.028 527.289 491.621 526.989 491.315 526.589C491.021 526.176 490.875 525.669 490.875 525.069C490.875 524.323 491.121 523.709 491.615 523.229C492.121 522.736 492.821 522.403 493.715 522.229L497.675 521.449V522.769L494.455 523.429C493.801 523.563 493.315 523.749 492.995 523.989C492.675 524.229 492.515 524.563 492.515 524.989C492.515 525.403 492.675 525.743 492.995 526.009C493.328 526.263 493.795 526.389 494.395 526.389C494.781 526.389 495.148 526.343 495.495 526.249C495.855 526.143 496.175 525.989 496.455 525.789C496.735 525.576 496.955 525.316 497.115 525.009C497.275 524.689 497.355 524.316 497.355 523.889V521.129ZM504.812 514.749V524.829C504.812 525.323 504.952 525.689 505.232 525.929C505.512 526.169 505.872 526.289 506.312 526.289C506.699 526.289 507.032 526.223 507.312 526.089C507.592 525.956 507.846 525.776 508.072 525.549L508.632 526.889C508.326 527.169 507.959 527.389 507.532 527.549C507.119 527.709 506.639 527.789 506.092 527.789C505.586 527.789 505.112 527.703 504.672 527.529C504.232 527.343 503.879 527.056 503.612 526.669C503.359 526.269 503.226 525.749 503.212 525.109V515.189L504.812 514.749ZM508.452 517.589V518.969H501.212V517.589H508.452ZM525.36 517.589L520.66 529.269C520.406 529.923 520.126 530.436 519.82 530.809C519.526 531.196 519.193 531.469 518.82 531.629C518.46 531.803 518.04 531.889 517.56 531.889C517.106 531.889 516.686 531.823 516.3 531.689C515.926 531.569 515.593 531.403 515.3 531.189L515.74 529.789C516.006 530.029 516.286 530.203 516.58 530.309C516.886 530.429 517.186 530.489 517.48 530.489C517.826 530.489 518.153 530.383 518.46 530.169C518.766 529.956 519.046 529.523 519.3 528.869L519.82 527.569L518.82 525.189L515.64 517.589H517.46L519.96 524.109L520.58 525.889L521.3 523.909L523.64 517.589H525.36ZM531.592 517.389C532.539 517.389 533.372 517.596 534.092 518.009C534.826 518.423 535.399 519.023 535.812 519.809C536.226 520.583 536.432 521.509 536.432 522.589C536.432 523.669 536.226 524.603 535.812 525.389C535.399 526.163 534.826 526.756 534.092 527.169C533.372 527.583 532.539 527.789 531.592 527.789C530.659 527.789 529.826 527.583 529.092 527.169C528.359 526.756 527.786 526.163 527.372 525.389C526.959 524.603 526.752 523.669 526.752 522.589C526.752 521.509 526.959 520.583 527.372 519.809C527.786 519.023 528.359 518.423 529.092 518.009C529.826 517.596 530.659 517.389 531.592 517.389ZM531.592 518.769C530.912 518.769 530.332 518.923 529.852 519.229C529.372 519.536 528.999 519.976 528.732 520.549C528.479 521.109 528.352 521.789 528.352 522.589C528.352 523.376 528.479 524.056 528.732 524.629C528.999 525.203 529.372 525.643 529.852 525.949C530.332 526.256 530.912 526.409 531.592 526.409C532.272 526.409 532.852 526.256 533.332 525.949C533.812 525.643 534.179 525.203 534.432 524.629C534.699 524.056 534.832 523.376 534.832 522.589C534.832 521.789 534.699 521.109 534.432 520.549C534.179 519.976 533.812 519.536 533.332 519.229C532.852 518.923 532.272 518.769 531.592 518.769ZM543.064 527.789C542.424 527.789 541.818 527.669 541.244 527.429C540.684 527.189 540.224 526.803 539.864 526.269C539.518 525.723 539.344 525.016 539.344 524.149V517.589H540.944V523.729C540.944 524.743 541.164 525.443 541.604 525.829C542.044 526.203 542.664 526.389 543.464 526.389C543.838 526.389 544.204 526.329 544.564 526.209C544.924 526.076 545.244 525.876 545.524 525.609C545.818 525.329 546.044 524.976 546.204 524.549C546.378 524.123 546.464 523.616 546.464 523.029V517.589H548.064V527.589H546.664L546.564 526.069C546.218 526.669 545.744 527.109 545.144 527.389C544.558 527.656 543.864 527.789 543.064 527.789ZM562.205 527.789C561.231 527.789 560.331 527.583 559.505 527.169C558.691 526.756 558.065 526.169 557.625 525.409L558.985 524.429C559.278 525.043 559.705 525.523 560.265 525.869C560.838 526.216 561.525 526.389 562.325 526.389C563.031 526.389 563.585 526.256 563.985 525.989C564.385 525.709 564.585 525.349 564.585 524.909C564.585 524.629 564.491 524.376 564.305 524.149C564.131 523.909 563.791 523.736 563.285 523.629L560.885 523.129C559.911 522.929 559.211 522.596 558.785 522.129C558.371 521.663 558.165 521.083 558.165 520.389C558.165 519.843 558.318 519.343 558.625 518.889C558.945 518.436 559.391 518.076 559.965 517.809C560.551 517.529 561.238 517.389 562.025 517.389C563.011 517.389 563.845 517.583 564.525 517.969C565.205 518.356 565.711 518.903 566.045 519.609L564.705 520.489C564.478 519.903 564.111 519.476 563.605 519.209C563.098 518.929 562.571 518.789 562.025 518.789C561.545 518.789 561.131 518.856 560.785 518.989C560.451 519.123 560.191 519.309 560.005 519.549C559.831 519.776 559.745 520.036 559.745 520.329C559.745 520.623 559.845 520.896 560.045 521.149C560.245 521.389 560.618 521.563 561.165 521.669L563.665 522.189C564.598 522.376 565.251 522.683 565.625 523.109C565.998 523.536 566.185 524.056 566.185 524.669C566.185 525.296 566.018 525.849 565.685 526.329C565.351 526.796 564.885 527.156 564.285 527.409C563.685 527.663 562.991 527.789 562.205 527.789ZM573.332 527.789C572.385 527.789 571.538 527.583 570.792 527.169C570.058 526.756 569.485 526.163 569.072 525.389C568.658 524.603 568.452 523.669 568.452 522.589C568.452 521.509 568.658 520.583 569.072 519.809C569.485 519.023 570.052 518.423 570.772 518.009C571.492 517.596 572.312 517.389 573.232 517.389C574.165 517.389 574.958 517.589 575.612 517.989C576.278 518.389 576.785 518.936 577.132 519.629C577.478 520.309 577.652 521.076 577.652 521.929C577.652 522.156 577.645 522.363 577.632 522.549C577.618 522.736 577.598 522.903 577.572 523.049H569.492V521.629H576.872L576.052 521.789C576.052 520.829 575.785 520.089 575.252 519.569C574.732 519.049 574.045 518.789 573.192 518.789C572.538 518.789 571.972 518.943 571.492 519.249C571.025 519.543 570.658 519.976 570.392 520.549C570.138 521.109 570.012 521.789 570.012 522.589C570.012 523.376 570.145 524.056 570.412 524.629C570.678 525.203 571.052 525.643 571.532 525.949C572.025 526.243 572.612 526.389 573.292 526.389C574.025 526.389 574.618 526.249 575.072 525.969C575.538 525.689 575.912 525.309 576.192 524.829L577.452 525.569C577.198 526.023 576.872 526.416 576.472 526.749C576.085 527.083 575.625 527.343 575.092 527.529C574.572 527.703 573.985 527.789 573.332 527.789ZM586.534 521.129C586.534 520.383 586.334 519.809 585.934 519.409C585.534 518.996 584.968 518.789 584.234 518.789C583.541 518.789 582.954 518.943 582.474 519.249C581.994 519.543 581.641 520.023 581.414 520.689L580.114 519.889C580.381 519.143 580.874 518.543 581.594 518.089C582.314 517.623 583.208 517.389 584.274 517.389C584.994 517.389 585.648 517.516 586.234 517.769C586.821 518.009 587.281 518.383 587.614 518.889C587.961 519.383 588.134 520.023 588.134 520.809V525.649C588.134 526.129 588.388 526.369 588.894 526.369C589.148 526.369 589.394 526.336 589.634 526.269L589.554 527.529C589.288 527.663 588.941 527.729 588.514 527.729C588.128 527.729 587.781 527.656 587.474 527.509C587.168 527.363 586.928 527.143 586.754 526.849C586.581 526.543 586.494 526.163 586.494 525.709V525.509L586.894 525.569C586.734 526.089 586.461 526.516 586.074 526.849C585.688 527.169 585.254 527.409 584.774 527.569C584.294 527.716 583.821 527.789 583.354 527.789C582.768 527.789 582.221 527.689 581.714 527.489C581.208 527.289 580.801 526.989 580.494 526.589C580.201 526.176 580.054 525.669 580.054 525.069C580.054 524.323 580.301 523.709 580.794 523.229C581.301 522.736 582.001 522.403 582.894 522.229L586.854 521.449V522.769L583.634 523.429C582.981 523.563 582.494 523.749 582.174 523.989C581.854 524.229 581.694 524.563 581.694 524.989C581.694 525.403 581.854 525.743 582.174 526.009C582.508 526.263 582.974 526.389 583.574 526.389C583.961 526.389 584.328 526.343 584.674 526.249C585.034 526.143 585.354 525.989 585.634 525.789C585.914 525.576 586.134 525.316 586.294 525.009C586.454 524.689 586.534 524.316 586.534 523.889V521.129ZM592.023 527.589V517.589H593.323L593.543 519.229C593.823 518.616 594.229 518.156 594.763 517.849C595.309 517.543 595.969 517.389 596.743 517.389C596.916 517.389 597.103 517.403 597.303 517.429C597.516 517.456 597.696 517.509 597.843 517.589L597.563 519.049C597.416 518.996 597.256 518.956 597.083 518.929C596.909 518.903 596.663 518.889 596.343 518.889C595.929 518.889 595.509 519.009 595.083 519.249C594.669 519.489 594.323 519.856 594.043 520.349C593.763 520.829 593.623 521.443 593.623 522.189V527.589H592.023ZM604.014 517.389C604.707 517.389 605.314 517.496 605.834 517.709C606.367 517.923 606.827 518.229 607.214 518.629C607.601 519.029 607.914 519.503 608.154 520.049L606.634 520.769C606.421 520.129 606.094 519.643 605.654 519.309C605.227 518.963 604.667 518.789 603.974 518.789C603.307 518.789 602.734 518.943 602.254 519.249C601.774 519.543 601.407 519.976 601.154 520.549C600.901 521.109 600.774 521.789 600.774 522.589C600.774 523.376 600.901 524.056 601.154 524.629C601.407 525.203 601.774 525.643 602.254 525.949C602.734 526.243 603.307 526.389 603.974 526.389C604.494 526.389 604.941 526.309 605.314 526.149C605.701 525.989 606.014 525.756 606.254 525.449C606.507 525.143 606.681 524.769 606.774 524.329L608.254 524.849C608.027 525.463 607.714 525.989 607.314 526.429C606.927 526.869 606.454 527.209 605.894 527.449C605.347 527.676 604.721 527.789 604.014 527.789C603.081 527.789 602.247 527.583 601.514 527.169C600.781 526.756 600.207 526.163 599.794 525.389C599.381 524.603 599.174 523.669 599.174 522.589C599.174 521.509 599.381 520.583 599.794 519.809C600.207 519.023 600.781 518.423 601.514 518.009C602.247 517.596 603.081 517.389 604.014 517.389ZM611.066 527.589V512.989H612.666V519.089C613.012 518.489 613.472 518.056 614.046 517.789C614.619 517.523 615.246 517.389 615.926 517.389C616.646 517.389 617.299 517.529 617.886 517.809C618.472 518.076 618.939 518.489 619.286 519.049C619.646 519.609 619.826 520.323 619.826 521.189V527.589H618.226V521.749C618.226 520.643 617.986 519.876 617.506 519.449C617.039 519.009 616.459 518.789 615.766 518.789C615.286 518.789 614.806 518.903 614.326 519.129C613.846 519.356 613.446 519.729 613.126 520.249C612.819 520.756 612.666 521.436 612.666 522.289V527.589H611.066ZM633.954 512.889C634.3 512.889 634.627 512.929 634.934 513.009C635.24 513.089 635.48 513.203 635.654 513.349L635.234 514.649C635.074 514.543 634.9 514.469 634.714 514.429C634.527 514.376 634.32 514.349 634.094 514.349C633.52 514.349 633.074 514.489 632.754 514.769C632.434 515.036 632.274 515.469 632.274 516.069V517.589V518.109V527.589H630.674V515.909C630.674 515.469 630.74 515.063 630.874 514.689C631.007 514.316 631.207 513.996 631.474 513.729C631.754 513.463 632.1 513.256 632.514 513.109C632.927 512.963 633.407 512.889 633.954 512.889ZM635.614 517.589V518.969H628.674V517.589H635.614ZM641.612 517.389C642.558 517.389 643.392 517.596 644.112 518.009C644.845 518.423 645.418 519.023 645.832 519.809C646.245 520.583 646.452 521.509 646.452 522.589C646.452 523.669 646.245 524.603 645.832 525.389C645.418 526.163 644.845 526.756 644.112 527.169C643.392 527.583 642.558 527.789 641.612 527.789C640.678 527.789 639.845 527.583 639.112 527.169C638.378 526.756 637.805 526.163 637.392 525.389C636.978 524.603 636.772 523.669 636.772 522.589C636.772 521.509 636.978 520.583 637.392 519.809C637.805 519.023 638.378 518.423 639.112 518.009C639.845 517.596 640.678 517.389 641.612 517.389ZM641.612 518.769C640.932 518.769 640.352 518.923 639.872 519.229C639.392 519.536 639.018 519.976 638.752 520.549C638.498 521.109 638.372 521.789 638.372 522.589C638.372 523.376 638.498 524.056 638.752 524.629C639.018 525.203 639.392 525.643 639.872 525.949C640.352 526.256 640.932 526.409 641.612 526.409C642.292 526.409 642.872 526.256 643.352 525.949C643.832 525.643 644.198 525.203 644.452 524.629C644.718 524.056 644.852 523.376 644.852 522.589C644.852 521.789 644.718 521.109 644.452 520.549C644.198 519.976 643.832 519.536 643.352 519.229C642.872 518.923 642.292 518.769 641.612 518.769ZM649.464 527.589V517.589H650.764L650.984 519.229C651.264 518.616 651.671 518.156 652.204 517.849C652.751 517.543 653.411 517.389 654.184 517.389C654.357 517.389 654.544 517.403 654.744 517.429C654.957 517.456 655.137 517.509 655.284 517.589L655.004 519.049C654.857 518.996 654.697 518.956 654.524 518.929C654.351 518.903 654.104 518.889 653.784 518.889C653.371 518.889 652.951 519.009 652.524 519.249C652.111 519.489 651.764 519.856 651.484 520.349C651.204 520.829 651.064 521.443 651.064 522.189V527.589H649.464ZM656.827 525.189C657.213 525.189 657.527 525.309 657.767 525.549C658.007 525.789 658.127 526.103 658.127 526.489C658.127 526.876 658.007 527.189 657.767 527.429C657.527 527.669 657.213 527.789 656.827 527.789C656.44 527.789 656.127 527.669 655.887 527.429C655.647 527.189 655.527 526.876 655.527 526.489C655.527 526.103 655.647 525.789 655.887 525.549C656.127 525.309 656.44 525.189 656.827 525.189Z" fill="#221C42"/>
<rect x="250.973" y="541.058" width="396.098" height="33.2699" fill="url(#paint0_radial_26_1936)"/>
<path d="M364.462 548.13V549.63H359.862V561.33H358.262V549.63H353.662V548.13H364.462ZM365.566 561.33V551.33H366.866L367.086 552.97C367.366 552.357 367.772 551.897 368.306 551.59C368.852 551.283 369.512 551.13 370.286 551.13C370.459 551.13 370.646 551.143 370.846 551.17C371.059 551.196 371.239 551.25 371.386 551.33L371.106 552.79C370.959 552.737 370.799 552.697 370.626 552.67C370.452 552.643 370.206 552.63 369.886 552.63C369.472 552.63 369.052 552.75 368.626 552.99C368.212 553.23 367.866 553.597 367.586 554.09C367.306 554.57 367.166 555.183 367.166 555.93V561.33H365.566ZM381.95 551.33L377.25 563.01C376.996 563.663 376.716 564.177 376.41 564.55C376.116 564.937 375.783 565.21 375.41 565.37C375.05 565.543 374.63 565.63 374.15 565.63C373.696 565.63 373.276 565.563 372.89 565.43C372.516 565.31 372.183 565.143 371.89 564.93L372.33 563.53C372.596 563.77 372.876 563.943 373.17 564.05C373.476 564.17 373.776 564.23 374.07 564.23C374.416 564.23 374.743 564.123 375.05 563.91C375.356 563.697 375.636 563.263 375.89 562.61L376.41 561.31L375.41 558.93L372.23 551.33H374.05L376.55 557.85L377.17 559.63L377.89 557.65L380.23 551.33H381.95ZM393.951 561.53C392.977 561.53 392.077 561.323 391.251 560.91C390.437 560.497 389.811 559.91 389.371 559.15L390.731 558.17C391.024 558.783 391.451 559.263 392.011 559.61C392.584 559.957 393.271 560.13 394.071 560.13C394.777 560.13 395.331 559.997 395.731 559.73C396.131 559.45 396.331 559.09 396.331 558.65C396.331 558.37 396.237 558.117 396.051 557.89C395.877 557.65 395.537 557.477 395.031 557.37L392.631 556.87C391.657 556.67 390.957 556.337 390.531 555.87C390.117 555.403 389.911 554.823 389.911 554.13C389.911 553.583 390.064 553.083 390.371 552.63C390.691 552.177 391.137 551.817 391.711 551.55C392.297 551.27 392.984 551.13 393.771 551.13C394.757 551.13 395.591 551.323 396.271 551.71C396.951 552.097 397.457 552.643 397.791 553.35L396.451 554.23C396.224 553.643 395.857 553.217 395.351 552.95C394.844 552.67 394.317 552.53 393.771 552.53C393.291 552.53 392.877 552.597 392.531 552.73C392.197 552.863 391.937 553.05 391.751 553.29C391.577 553.517 391.491 553.777 391.491 554.07C391.491 554.363 391.591 554.637 391.791 554.89C391.991 555.13 392.364 555.303 392.911 555.41L395.411 555.93C396.344 556.117 396.997 556.423 397.371 556.85C397.744 557.277 397.931 557.797 397.931 558.41C397.931 559.037 397.764 559.59 397.431 560.07C397.097 560.537 396.631 560.897 396.031 561.15C395.431 561.403 394.737 561.53 393.951 561.53ZM405.078 561.53C404.131 561.53 403.284 561.323 402.538 560.91C401.804 560.497 401.231 559.903 400.818 559.13C400.404 558.343 400.198 557.41 400.198 556.33C400.198 555.25 400.404 554.323 400.818 553.55C401.231 552.763 401.798 552.163 402.518 551.75C403.238 551.336 404.058 551.13 404.978 551.13C405.911 551.13 406.704 551.33 407.358 551.73C408.024 552.13 408.531 552.677 408.878 553.37C409.224 554.05 409.398 554.817 409.398 555.67C409.398 555.897 409.391 556.103 409.378 556.29C409.364 556.477 409.344 556.643 409.318 556.79H401.238V555.37H408.618L407.798 555.53C407.798 554.57 407.531 553.83 406.998 553.31C406.478 552.79 405.791 552.53 404.938 552.53C404.284 552.53 403.718 552.683 403.238 552.99C402.771 553.283 402.404 553.717 402.138 554.29C401.884 554.85 401.758 555.53 401.758 556.33C401.758 557.117 401.891 557.797 402.158 558.37C402.424 558.943 402.798 559.383 403.278 559.69C403.771 559.983 404.358 560.13 405.038 560.13C405.771 560.13 406.364 559.99 406.818 559.71C407.284 559.43 407.658 559.05 407.938 558.57L409.198 559.31C408.944 559.763 408.618 560.157 408.218 560.49C407.831 560.823 407.371 561.083 406.838 561.27C406.318 561.443 405.731 561.53 405.078 561.53ZM418.281 554.87C418.281 554.123 418.081 553.55 417.681 553.15C417.281 552.737 416.714 552.53 415.981 552.53C415.287 552.53 414.701 552.683 414.221 552.99C413.741 553.283 413.387 553.763 413.161 554.43L411.861 553.63C412.127 552.883 412.621 552.283 413.341 551.83C414.061 551.363 414.954 551.13 416.021 551.13C416.741 551.13 417.394 551.256 417.981 551.51C418.567 551.75 419.027 552.123 419.361 552.63C419.707 553.123 419.881 553.763 419.881 554.55V559.39C419.881 559.87 420.134 560.11 420.641 560.11C420.894 560.11 421.141 560.077 421.381 560.01L421.301 561.27C421.034 561.403 420.687 561.47 420.261 561.47C419.874 561.47 419.527 561.397 419.221 561.25C418.914 561.103 418.674 560.883 418.501 560.59C418.327 560.283 418.241 559.903 418.241 559.45V559.25L418.641 559.31C418.481 559.83 418.207 560.257 417.821 560.59C417.434 560.91 417.001 561.15 416.521 561.31C416.041 561.457 415.567 561.53 415.101 561.53C414.514 561.53 413.967 561.43 413.461 561.23C412.954 561.03 412.547 560.73 412.241 560.33C411.947 559.917 411.801 559.41 411.801 558.81C411.801 558.063 412.047 557.45 412.541 556.97C413.047 556.477 413.747 556.143 414.641 555.97L418.601 555.19V556.51L415.381 557.17C414.727 557.303 414.241 557.49 413.921 557.73C413.601 557.97 413.441 558.303 413.441 558.73C413.441 559.143 413.601 559.483 413.921 559.75C414.254 560.003 414.721 560.13 415.321 560.13C415.707 560.13 416.074 560.083 416.421 559.99C416.781 559.883 417.101 559.73 417.381 559.53C417.661 559.317 417.881 559.057 418.041 558.75C418.201 558.43 418.281 558.057 418.281 557.63V554.87ZM423.769 561.33V551.33H425.069L425.289 552.97C425.569 552.357 425.975 551.897 426.509 551.59C427.055 551.283 427.715 551.13 428.489 551.13C428.662 551.13 428.849 551.143 429.049 551.17C429.262 551.196 429.442 551.25 429.589 551.33L429.309 552.79C429.162 552.737 429.002 552.697 428.829 552.67C428.655 552.643 428.409 552.63 428.089 552.63C427.675 552.63 427.255 552.75 426.829 552.99C426.415 553.23 426.069 553.597 425.789 554.09C425.509 554.57 425.369 555.183 425.369 555.93V561.33H423.769ZM435.76 551.13C436.454 551.13 437.06 551.236 437.58 551.45C438.114 551.663 438.574 551.97 438.96 552.37C439.347 552.77 439.66 553.243 439.9 553.79L438.38 554.51C438.167 553.87 437.84 553.383 437.4 553.05C436.974 552.703 436.414 552.53 435.72 552.53C435.054 552.53 434.48 552.683 434 552.99C433.52 553.283 433.154 553.717 432.9 554.29C432.647 554.85 432.52 555.53 432.52 556.33C432.52 557.117 432.647 557.797 432.9 558.37C433.154 558.943 433.52 559.383 434 559.69C434.48 559.983 435.054 560.13 435.72 560.13C436.24 560.13 436.687 560.05 437.06 559.89C437.447 559.73 437.76 559.497 438 559.19C438.254 558.883 438.427 558.51 438.52 558.07L440 558.59C439.774 559.203 439.46 559.73 439.06 560.17C438.674 560.61 438.2 560.95 437.64 561.19C437.094 561.417 436.467 561.53 435.76 561.53C434.827 561.53 433.994 561.323 433.26 560.91C432.527 560.497 431.954 559.903 431.54 559.13C431.127 558.343 430.92 557.41 430.92 556.33C430.92 555.25 431.127 554.323 431.54 553.55C431.954 552.763 432.527 552.163 433.26 551.75C433.994 551.336 434.827 551.13 435.76 551.13ZM442.812 561.33V546.73H444.412V552.83C444.758 552.23 445.218 551.797 445.792 551.53C446.365 551.263 446.992 551.13 447.672 551.13C448.392 551.13 449.045 551.27 449.632 551.55C450.218 551.817 450.685 552.23 451.032 552.79C451.392 553.35 451.572 554.063 451.572 554.93V561.33H449.972V555.49C449.972 554.383 449.732 553.617 449.252 553.19C448.785 552.75 448.205 552.53 447.512 552.53C447.032 552.53 446.552 552.643 446.072 552.87C445.592 553.097 445.192 553.47 444.872 553.99C444.565 554.497 444.412 555.177 444.412 556.03V561.33H442.812ZM455.994 549.41C455.634 549.41 455.341 549.303 455.114 549.09C454.901 548.863 454.794 548.57 454.794 548.21C454.794 547.85 454.901 547.563 455.114 547.35C455.341 547.123 455.634 547.01 455.994 547.01C456.354 547.01 456.641 547.123 456.854 547.35C457.081 547.563 457.194 547.85 457.194 548.21C457.194 548.57 457.081 548.863 456.854 549.09C456.641 549.303 456.354 549.41 455.994 549.41ZM456.794 551.33V561.33H455.194V551.33H456.794ZM460.507 561.33V551.33H461.907L462.047 553.57L461.787 553.35C462 552.817 462.287 552.39 462.647 552.07C463.007 551.736 463.42 551.497 463.887 551.35C464.367 551.203 464.86 551.13 465.367 551.13C466.087 551.13 466.74 551.27 467.327 551.55C467.914 551.817 468.38 552.23 468.727 552.79C469.087 553.35 469.267 554.063 469.267 554.93V561.33H467.667V555.49C467.667 554.383 467.427 553.617 466.947 553.19C466.48 552.75 465.9 552.53 465.207 552.53C464.727 552.53 464.247 552.643 463.767 552.87C463.287 553.097 462.887 553.463 462.567 553.97C462.26 554.477 462.107 555.157 462.107 556.01V561.33H460.507ZM481.31 549.49L481.67 550.91C481.656 550.91 481.636 550.91 481.61 550.91C481.583 550.91 481.556 550.91 481.53 550.91C480.876 550.91 480.37 551.043 480.01 551.31C479.663 551.563 479.49 551.977 479.49 552.55L478.51 552.05C478.51 551.53 478.63 551.077 478.87 550.69C479.11 550.303 479.436 550.01 479.85 549.81C480.263 549.597 480.716 549.49 481.21 549.49C481.223 549.49 481.236 549.49 481.25 549.49C481.276 549.49 481.296 549.49 481.31 549.49ZM478.27 560.05C479.216 560.05 479.956 560.27 480.49 560.71C481.023 561.137 481.29 561.71 481.29 562.43C481.29 563.083 481.07 563.65 480.63 564.13C480.203 564.61 479.623 564.977 478.89 565.23C478.17 565.497 477.356 565.63 476.45 565.63C474.876 565.63 473.696 565.363 472.91 564.83C472.136 564.297 471.75 563.657 471.75 562.91C471.75 562.377 471.923 561.897 472.27 561.47C472.63 561.057 473.23 560.823 474.07 560.77L473.93 561.07C473.476 560.95 473.09 560.75 472.77 560.47C472.463 560.177 472.31 559.757 472.31 559.21C472.31 558.663 472.51 558.197 472.91 557.81C473.323 557.41 473.93 557.163 474.73 557.07L475.79 557.61H475.59C474.936 557.677 474.47 557.843 474.19 558.11C473.923 558.363 473.79 558.643 473.79 558.95C473.79 559.323 473.923 559.603 474.19 559.79C474.47 559.963 474.856 560.05 475.35 560.05H478.27ZM476.43 564.29C477.203 564.29 477.836 564.21 478.33 564.05C478.836 563.89 479.21 563.683 479.45 563.43C479.69 563.177 479.81 562.903 479.81 562.61C479.81 562.25 479.663 561.963 479.37 561.75C479.09 561.537 478.576 561.43 477.83 561.43H474.75C474.323 561.43 473.963 561.537 473.67 561.75C473.376 561.977 473.23 562.283 473.23 562.67C473.23 563.163 473.51 563.557 474.07 563.85C474.643 564.143 475.43 564.29 476.43 564.29ZM476.29 551.13C477.09 551.13 477.796 551.276 478.41 551.57C479.036 551.85 479.523 552.243 479.87 552.75C480.216 553.257 480.39 553.843 480.39 554.51C480.39 555.163 480.216 555.75 479.87 556.27C479.523 556.777 479.036 557.177 478.41 557.47C477.796 557.75 477.09 557.89 476.29 557.89C474.97 557.89 473.956 557.577 473.25 556.95C472.543 556.31 472.19 555.497 472.19 554.51C472.19 553.843 472.363 553.257 472.71 552.75C473.07 552.243 473.556 551.85 474.17 551.57C474.783 551.276 475.49 551.13 476.29 551.13ZM476.29 552.43C475.596 552.43 475.016 552.623 474.55 553.01C474.083 553.383 473.85 553.883 473.85 554.51C473.85 555.123 474.083 555.623 474.55 556.01C475.016 556.397 475.596 556.59 476.29 556.59C476.983 556.59 477.563 556.397 478.03 556.01C478.496 555.623 478.73 555.123 478.73 554.51C478.73 553.883 478.496 553.383 478.03 553.01C477.563 552.623 476.983 552.43 476.29 552.43ZM496.191 554.87C496.191 554.123 495.991 553.55 495.591 553.15C495.191 552.737 494.624 552.53 493.891 552.53C493.197 552.53 492.611 552.683 492.131 552.99C491.651 553.283 491.297 553.763 491.071 554.43L489.771 553.63C490.037 552.883 490.531 552.283 491.251 551.83C491.971 551.363 492.864 551.13 493.931 551.13C494.651 551.13 495.304 551.256 495.891 551.51C496.477 551.75 496.937 552.123 497.271 552.63C497.617 553.123 497.791 553.763 497.791 554.55V559.39C497.791 559.87 498.044 560.11 498.551 560.11C498.804 560.11 499.051 560.077 499.291 560.01L499.211 561.27C498.944 561.403 498.597 561.47 498.171 561.47C497.784 561.47 497.437 561.397 497.131 561.25C496.824 561.103 496.584 560.883 496.411 560.59C496.237 560.283 496.151 559.903 496.151 559.45V559.25L496.551 559.31C496.391 559.83 496.117 560.257 495.731 560.59C495.344 560.91 494.911 561.15 494.431 561.31C493.951 561.457 493.477 561.53 493.011 561.53C492.424 561.53 491.877 561.43 491.371 561.23C490.864 561.03 490.457 560.73 490.151 560.33C489.857 559.917 489.711 559.41 489.711 558.81C489.711 558.063 489.957 557.45 490.451 556.97C490.957 556.477 491.657 556.143 492.551 555.97L496.511 555.19V556.51L493.291 557.17C492.637 557.303 492.151 557.49 491.831 557.73C491.511 557.97 491.351 558.303 491.351 558.73C491.351 559.143 491.511 559.483 491.831 559.75C492.164 560.003 492.631 560.13 493.231 560.13C493.617 560.13 493.984 560.083 494.331 559.99C494.691 559.883 495.011 559.73 495.291 559.53C495.571 559.317 495.791 559.057 495.951 558.75C496.111 558.43 496.191 558.057 496.191 557.63V554.87ZM510.099 549.49L510.459 550.91C510.446 550.91 510.426 550.91 510.399 550.91C510.372 550.91 510.346 550.91 510.319 550.91C509.666 550.91 509.159 551.043 508.799 551.31C508.452 551.563 508.279 551.977 508.279 552.55L507.299 552.05C507.299 551.53 507.419 551.077 507.659 550.69C507.899 550.303 508.226 550.01 508.639 549.81C509.052 549.597 509.506 549.49 509.999 549.49C510.012 549.49 510.026 549.49 510.039 549.49C510.066 549.49 510.086 549.49 510.099 549.49ZM507.059 560.05C508.006 560.05 508.746 560.27 509.279 560.71C509.812 561.137 510.079 561.71 510.079 562.43C510.079 563.083 509.859 563.65 509.419 564.13C508.992 564.61 508.412 564.977 507.679 565.23C506.959 565.497 506.146 565.63 505.239 565.63C503.666 565.63 502.486 565.363 501.699 564.83C500.926 564.297 500.539 563.657 500.539 562.91C500.539 562.377 500.712 561.897 501.059 561.47C501.419 561.057 502.019 560.823 502.859 560.77L502.719 561.07C502.266 560.95 501.879 560.75 501.559 560.47C501.252 560.177 501.099 559.757 501.099 559.21C501.099 558.663 501.299 558.197 501.699 557.81C502.112 557.41 502.719 557.163 503.519 557.07L504.579 557.61H504.379C503.726 557.677 503.259 557.843 502.979 558.11C502.712 558.363 502.579 558.643 502.579 558.95C502.579 559.323 502.712 559.603 502.979 559.79C503.259 559.963 503.646 560.05 504.139 560.05H507.059ZM505.219 564.29C505.992 564.29 506.626 564.21 507.119 564.05C507.626 563.89 507.999 563.683 508.239 563.43C508.479 563.177 508.599 562.903 508.599 562.61C508.599 562.25 508.452 561.963 508.159 561.75C507.879 561.537 507.366 561.43 506.619 561.43H503.539C503.112 561.43 502.752 561.537 502.459 561.75C502.166 561.977 502.019 562.283 502.019 562.67C502.019 563.163 502.299 563.557 502.859 563.85C503.432 564.143 504.219 564.29 505.219 564.29ZM505.079 551.13C505.879 551.13 506.586 551.276 507.199 551.57C507.826 551.85 508.312 552.243 508.659 552.75C509.006 553.257 509.179 553.843 509.179 554.51C509.179 555.163 509.006 555.75 508.659 556.27C508.312 556.777 507.826 557.177 507.199 557.47C506.586 557.75 505.879 557.89 505.079 557.89C503.759 557.89 502.746 557.577 502.039 556.95C501.332 556.31 500.979 555.497 500.979 554.51C500.979 553.843 501.152 553.257 501.499 552.75C501.859 552.243 502.346 551.85 502.959 551.57C503.572 551.276 504.279 551.13 505.079 551.13ZM505.079 552.43C504.386 552.43 503.806 552.623 503.339 553.01C502.872 553.383 502.639 553.883 502.639 554.51C502.639 555.123 502.872 555.623 503.339 556.01C503.806 556.397 504.386 556.59 505.079 556.59C505.772 556.59 506.352 556.397 506.819 556.01C507.286 555.623 507.519 555.123 507.519 554.51C507.519 553.883 507.286 553.383 506.819 553.01C506.352 552.623 505.772 552.43 505.079 552.43ZM518.163 554.87C518.163 554.123 517.963 553.55 517.563 553.15C517.163 552.737 516.597 552.53 515.863 552.53C515.17 552.53 514.583 552.683 514.103 552.99C513.623 553.283 513.27 553.763 513.043 554.43L511.743 553.63C512.01 552.883 512.503 552.283 513.223 551.83C513.943 551.363 514.837 551.13 515.903 551.13C516.623 551.13 517.277 551.256 517.863 551.51C518.45 551.75 518.91 552.123 519.243 552.63C519.59 553.123 519.763 553.763 519.763 554.55V559.39C519.763 559.87 520.017 560.11 520.523 560.11C520.777 560.11 521.023 560.077 521.263 560.01L521.183 561.27C520.917 561.403 520.57 561.47 520.143 561.47C519.757 561.47 519.41 561.397 519.103 561.25C518.797 561.103 518.557 560.883 518.383 560.59C518.21 560.283 518.123 559.903 518.123 559.45V559.25L518.523 559.31C518.363 559.83 518.09 560.257 517.703 560.59C517.317 560.91 516.883 561.15 516.403 561.31C515.923 561.457 515.45 561.53 514.983 561.53C514.397 561.53 513.85 561.43 513.343 561.23C512.837 561.03 512.43 560.73 512.123 560.33C511.83 559.917 511.683 559.41 511.683 558.81C511.683 558.063 511.93 557.45 512.423 556.97C512.93 556.477 513.63 556.143 514.523 555.97L518.483 555.19V556.51L515.263 557.17C514.61 557.303 514.123 557.49 513.803 557.73C513.483 557.97 513.323 558.303 513.323 558.73C513.323 559.143 513.483 559.483 513.803 559.75C514.137 560.003 514.603 560.13 515.203 560.13C515.59 560.13 515.957 560.083 516.303 559.99C516.663 559.883 516.983 559.73 517.263 559.53C517.543 559.317 517.763 559.057 517.923 558.75C518.083 558.43 518.163 558.057 518.163 557.63V554.87ZM524.452 549.41C524.092 549.41 523.798 549.303 523.572 549.09C523.358 548.863 523.252 548.57 523.252 548.21C523.252 547.85 523.358 547.563 523.572 547.35C523.798 547.123 524.092 547.01 524.452 547.01C524.812 547.01 525.098 547.123 525.312 547.35C525.538 547.563 525.652 547.85 525.652 548.21C525.652 548.57 525.538 548.863 525.312 549.09C525.098 549.303 524.812 549.41 524.452 549.41ZM525.252 551.33V561.33H523.652V551.33H525.252ZM528.964 561.33V551.33H530.364L530.504 553.57L530.244 553.35C530.457 552.817 530.744 552.39 531.104 552.07C531.464 551.736 531.877 551.497 532.344 551.35C532.824 551.203 533.317 551.13 533.824 551.13C534.544 551.13 535.197 551.27 535.784 551.55C536.371 551.817 536.837 552.23 537.184 552.79C537.544 553.35 537.724 554.063 537.724 554.93V561.33H536.124V555.49C536.124 554.383 535.884 553.617 535.404 553.19C534.937 552.75 534.357 552.53 533.664 552.53C533.184 552.53 532.704 552.643 532.224 552.87C531.744 553.097 531.344 553.463 531.024 553.97C530.717 554.477 530.564 555.157 530.564 556.01V561.33H528.964ZM542.147 558.93C542.533 558.93 542.847 559.05 543.087 559.29C543.327 559.53 543.447 559.843 543.447 560.23C543.447 560.617 543.327 560.93 543.087 561.17C542.847 561.41 542.533 561.53 542.147 561.53C541.76 561.53 541.447 561.41 541.207 561.17C540.967 560.93 540.847 560.617 540.847 560.23C540.847 559.843 540.967 559.53 541.207 559.29C541.447 559.05 541.76 558.93 542.147 558.93Z" fill="#221C42"/>
<path d="M594.948 166.572C553.691 124.064 499.618 158.758 477.738 181.419C549.66 198.505 594.948 273.238 598.624 281.24C601.564 287.642 619.012 356.067 627.368 389.48C654.945 380.616 699.756 353.139 658.392 314.138C606.687 265.388 646.521 219.707 594.948 166.572Z" fill="#FFECC2"/>
<path d="M277.682 302.389C268.84 333.042 253.809 401.24 264.419 428.805C277.682 463.261 155.524 365.08 277.682 302.389Z" fill="#FFECC2"/>
<circle cx="281.196" cy="146.479" r="40.0403" fill="#FFE5AB"/>
<path fill-rule="evenodd" clip-rule="evenodd" d="M482.801 262.998C482.801 278.586 470.164 291.223 454.577 291.223C438.989 291.223 426.352 278.586 426.352 262.998C426.352 247.411 438.989 234.774 454.577 234.774C470.164 234.774 482.801 247.411 482.801 262.998ZM490.092 262.998C490.092 282.613 474.191 298.514 454.577 298.514C447.379 298.514 440.682 296.373 435.087 292.693L417.758 311.816L412.355 306.919L429.43 288.078C423.023 281.654 419.061 272.789 419.061 262.998C419.061 243.384 434.962 227.483 454.577 227.483C474.191 227.483 490.092 243.384 490.092 262.998Z" fill="#FFC447"/>
<rect x="459.44" y="269.499" width="98.481" height="147.573" transform="rotate(14.9943 459.44 269.499)" fill="white" stroke="black" stroke-width="2.43041"/>
<path d="M348.05 132.742C349.735 128.527 355.567 120.662 364.142 125.385C372.226 129.839 369.891 141.717 364.142 147.686C361.526 150.401 357.476 153.203 358.855 160.1" stroke="black" stroke-width="4.86081"/>
<circle cx="359.963" cy="166.733" r="3.0297" fill="black"/>
<path d="M327.564 448.12H634.444" stroke="black" stroke-width="2.43041"/>
<path d="M239.631 446.94H264.419" stroke="black" stroke-width="2.43041"/>
<path d="M517.592 177.831C540.215 187.077 590.182 218.079 609.067 268.124" stroke="black" stroke-width="2.43041"/>
<path d="M541.789 447.53V413.891" stroke="black" stroke-width="2.43041"/>
<path d="M542.38 374.941V356.057" stroke="black" stroke-width="2.43041"/>
<path d="M423.492 214.029C429.467 211.575 441.482 209.291 441.738 219.791M405.565 206.667C413.674 217.55 433.349 236.052 447.178 222.992C461.007 209.932 464.038 189.167 463.825 180.418C438.749 165.693 391.992 150.328 405.565 206.667Z" stroke="black" stroke-width="2.43041"/>
<path d="M427.679 201.134C427.679 202.969 426.548 203.945 425.715 203.945C424.882 203.945 423.751 202.969 423.751 201.134C423.751 199.298 424.882 198.323 425.715 198.323C426.548 198.323 427.679 199.298 427.679 201.134Z" fill="black" stroke="black" stroke-width="2.43041"/>
<path d="M444.77 201.134C444.77 202.867 443.599 203.945 442.528 203.945C441.457 203.945 440.286 202.867 440.286 201.134C440.286 199.401 441.457 198.323 442.528 198.323C443.599 198.323 444.77 199.401 444.77 201.134Z" fill="black" stroke="black" stroke-width="2.43041"/>
<path d="M355.078 445.946V405.399" stroke="black" stroke-width="2.43041"/>
<path d="M520.249 374.784C508.651 366.588 481.929 352.329 467.824 360.866C450.194 371.537 467.824 390.095 502.156 395.198H511.527M588.619 378.41L516.95 374.784L511.527 402.222L516.95 408.116C516.95 408.116 570.181 430.68 606.065 430.512C615.386 430.469 625.831 432.729 629.876 428.862C633.922 424.995 631.998 417.074 631.998 417.074C624.061 377.31 613.121 305.935 597.342 279.865C586.497 261.947 538.875 185.799 461.076 179.197C383.277 172.596 333.291 197.82 291.533 275.284C249.775 352.748 252.196 462.286 291.533 459.261C323.002 456.84 367.585 390.471 385.942 357.589L367.787 333.987" stroke="black" stroke-width="2.43041"/>
<path d="M408.53 210.46C405.902 210.46 397.946 193.671 394.296 185.277C388.119 171.068 402.355 144.008 419.568 139.946C441.085 134.869 468.887 152.759 468.404 174.276C467.92 195.793 433.107 194.101 426.096 191.199C419.084 188.298 421.502 195.793 419.568 200.87C417.634 205.947 412.557 191.199 408.53 187.815C405.308 185.107 407.187 194.262 408.53 199.178C409.625 202.938 411.158 210.46 408.53 210.46Z" fill="black" stroke="black" stroke-width="2.43041"/>
<path d="M325.858 357.116C351.147 340.364 402.492 306.923 405.565 307.179C409.407 307.5 428.933 305.579 429.253 317.103C429.574 328.627 420.61 343.672 405.565 343.672C393.529 343.672 385.612 343.672 383.158 343.672" stroke="black" stroke-width="2.43041"/>
<path d="M547.581 377.469L528.343 376.482L519.449 407.853L533.903 413.195L547.581 377.469Z" fill="white"/>
<path d="M415.244 238.837C411.811 246.593 407.005 264.776 415.244 275.457" stroke="black" stroke-width="2.43041"/>
<path d="M403.428 353.755C407.502 354.366 417.361 353.755 424.207 346.421" stroke="black" stroke-width="2.43041"/>
<path d="M281.195 270.354C285.27 257.112 298.796 226.594 320.31 210.46" stroke="black" stroke-width="2.43041"/>
<defs>
<radialGradient id="paint0_radial_26_1936" cx="0" cy="0" r="1" gradientUnits="userSpaceOnUse" gradientTransform="translate(449.022 557.693) scale(198.049 16.6349)">
<stop stop-color="#FFECC2"/>
<stop offset="1" stop-color="#FFE2A2" stop-opacity="0"/>
</radialGradient>
</defs>
</svg>
