<svg width="13" height="13" viewBox="0 0 13 13" fill="none" xmlns="http://www.w3.org/2000/svg">
<path d="M2.78727 5.2411C3.74727 7.12777 5.29061 8.6711 7.18061 9.6311L8.64727 8.1611C8.83061 7.97777 9.09394 7.92443 9.32394 7.99777C10.0706 8.24443 10.8739 8.37777 11.7039 8.37777C12.0739 8.37777 12.3706 8.67443 12.3706 9.04443V11.3778C12.3706 11.7478 12.0739 12.0444 11.7039 12.0444C5.44394 12.0444 0.370605 6.9711 0.370605 0.7111C0.370605 0.3411 0.670605 0.0444336 1.03727 0.0444336H3.37061C3.74061 0.0444336 4.03727 0.3411 4.03727 0.7111C4.03727 1.5411 4.17061 2.34443 4.41727 3.0911C4.49061 3.3211 4.43727 3.58443 4.25394 3.76777L2.78727 5.2411Z" fill="white"/>
</svg>
