<svg width="13" height="12" viewBox="0 0 13 12" fill="none" xmlns="http://www.w3.org/2000/svg">
<path d="M3.21159 5.19667C4.17159 7.08333 5.71492 8.62667 7.60492 9.58667L9.07159 8.11667C9.25492 7.93333 9.51826 7.88 9.74826 7.95333C10.4949 8.2 11.2983 8.33333 12.1283 8.33333C12.4983 8.33333 12.7949 8.63 12.7949 9V11.3333C12.7949 11.7033 12.4983 12 12.1283 12C5.86826 12 0.794922 6.92667 0.794922 0.666667C0.794922 0.296667 1.09492 0 1.46159 0H3.79492C4.16492 0 4.46159 0.296667 4.46159 0.666667C4.46159 1.49667 4.59492 2.3 4.84159 3.04667C4.91492 3.27667 4.86159 3.54 4.67826 3.72333L3.21159 5.19667Z" fill="#1E1E1E"/>
</svg>
