<svg width="25" height="24" viewBox="0 0 25 24" fill="none" xmlns="http://www.w3.org/2000/svg">
<path fill-rule="evenodd" clip-rule="evenodd" d="M7.10434 1.4615C4.37432 1.4615 2.1612 3.67462 2.1612 6.40464V17.5967C2.1612 20.3267 4.37432 22.5398 7.10434 22.5398H18.2964C21.0264 22.5398 23.2395 20.3267 23.2395 17.5967V6.40464C23.2395 3.67462 21.0264 1.4615 18.2964 1.4615H7.10434ZM0.855469 6.40464C0.855469 2.95348 3.65319 0.155762 7.10434 0.155762H18.2964C21.7475 0.155762 24.5452 2.95348 24.5452 6.40464V17.5967C24.5452 21.0478 21.7475 23.8455 18.2964 23.8455H7.10434C3.65319 23.8455 0.855469 21.0478 0.855469 17.5967V6.40464ZM13.3094 8.16925C12.5137 8.05127 11.7012 8.18717 10.9873 8.55761C10.2733 8.92806 9.69438 9.51418 9.33277 10.2326C8.97116 10.9511 8.84529 11.7652 8.97307 12.5593C9.10086 13.3534 9.47578 14.087 10.0445 14.6558C10.6133 15.2245 11.3468 15.5994 12.1409 15.7272C12.935 15.855 13.7492 15.7291 14.4677 15.3675C15.1861 15.0059 15.7722 14.427 16.1427 13.713C16.5131 12.9991 16.649 12.1865 16.531 11.3909C16.4107 10.5794 16.0325 9.82803 15.4524 9.2479C14.8722 8.66776 14.1209 8.2896 13.3094 8.16925ZM10.3859 7.39861C11.3436 6.90168 12.4336 6.71938 13.5009 6.87764C14.5896 7.03908 15.5974 7.54638 16.3757 8.3246C17.1539 9.10283 17.6612 10.1107 17.8226 11.1994C17.9809 12.2667 17.7986 13.3567 17.3017 14.3144C16.8047 15.2721 16.0185 16.0487 15.0547 16.5338C14.0909 17.0189 12.9988 17.1878 11.9335 17.0164C10.8682 16.8449 9.88416 16.342 9.12122 15.5791C8.35828 14.8161 7.85534 13.832 7.68392 12.7668C7.51251 11.7015 7.68136 10.6093 8.16644 9.64558C8.65153 8.68182 9.42816 7.89555 10.3859 7.39861ZM18.8559 5.1919C18.4953 5.1919 18.203 5.48419 18.203 5.84476C18.203 6.20533 18.4953 6.49763 18.8559 6.49763H18.8666C19.2271 6.49763 19.5194 6.20533 19.5194 5.84476C19.5194 5.48419 19.2271 5.1919 18.8666 5.1919H18.8559Z" fill="#1E1E1E"/>
</svg>
