<svg width="25" height="24" viewBox="0 0 25 24" fill="none" xmlns="http://www.w3.org/2000/svg">
<path fill-rule="evenodd" clip-rule="evenodd" d="M6.67978 1.50544C3.94976 1.50544 1.73664 3.71856 1.73664 6.44858V17.6406C1.73664 20.3706 3.94976 22.5837 6.67978 22.5837H17.8718C20.6018 22.5837 22.8149 20.3706 22.8149 17.6406V6.44858C22.8149 3.71856 20.6018 1.50544 17.8718 1.50544H6.67978ZM0.430908 6.44858C0.430908 2.99742 3.22862 0.199707 6.67978 0.199707H17.8718C21.323 0.199707 24.1207 2.99742 24.1207 6.44858V17.6406C24.1207 21.0918 21.323 23.8895 17.8718 23.8895H6.67978C3.22862 23.8895 0.430908 21.0918 0.430908 17.6406V6.44858ZM12.8851 8.2132C12.0895 8.09522 11.2769 8.23112 10.563 8.60156C9.84909 8.972 9.27014 9.55813 8.90853 10.2766C8.54692 10.995 8.42105 11.8092 8.54883 12.6033C8.67661 13.3974 9.05154 14.131 9.62027 14.6997C10.189 15.2684 10.9226 15.6434 11.7167 15.7711C12.5108 15.8989 13.325 15.7731 14.0434 15.4115C14.7619 15.0498 15.348 14.4709 15.7184 13.757C16.0889 13.043 16.2248 12.2305 16.1068 11.4349C15.9864 10.6233 15.6083 9.87198 15.0281 9.29184C14.448 8.71171 13.6967 8.33354 12.8851 8.2132ZM9.96163 7.44256C10.9193 6.94562 12.0094 6.76332 13.0766 6.92159C14.1653 7.08302 15.1732 7.59032 15.9514 8.36855C16.7297 9.14678 17.237 10.1547 17.3984 11.2433C17.5567 12.3106 17.3744 13.4006 16.8774 14.3584C16.3805 15.3161 15.5942 16.0927 14.6305 16.5778C13.6667 17.0629 12.5745 17.2317 11.5093 17.0603C10.444 16.8889 9.45992 16.3859 8.69698 15.623C7.93404 14.8601 7.4311 13.876 7.25968 12.8107C7.08827 11.7455 7.25711 10.6533 7.7422 9.68953C8.22729 8.72576 9.00392 7.9395 9.96163 7.44256ZM18.4313 5.23584C18.0707 5.23584 17.7784 5.52814 17.7784 5.88871C17.7784 6.24928 18.0707 6.54158 18.4313 6.54158H18.442C18.8026 6.54158 19.0949 6.24928 19.0949 5.88871C19.0949 5.52814 18.8026 5.23584 18.442 5.23584H18.4313Z" fill="white"/>
</svg>
