<svg width="24" height="20" viewBox="0 0 24 20" fill="none" xmlns="http://www.w3.org/2000/svg">
<path d="M22.551 1.23055C21.6132 1.89205 20.5749 2.39799 19.476 2.72888C18.8862 2.05073 18.1023 1.57007 17.2305 1.35191C16.3586 1.13376 15.4408 1.18863 14.6011 1.50912C13.7614 1.8296 13.0404 2.40023 12.5356 3.14383C12.0309 3.88743 11.7666 4.76812 11.7787 5.66679V6.64609C10.0577 6.69071 8.35236 6.30902 6.81459 5.53502C5.27683 4.76101 3.95436 3.61871 2.96495 2.20985C2.96495 2.20985 -0.952255 11.0236 7.86146 14.9408C5.84461 16.3098 3.44202 16.9963 1.00635 16.8994C9.82006 21.7959 20.5924 16.8994 20.5924 5.63741C20.5915 5.36463 20.5652 5.09252 20.514 4.82459C21.5135 3.83891 22.2188 2.59444 22.551 1.23055V1.23055Z" stroke="white" stroke-width="1.30574" stroke-linecap="round" stroke-linejoin="round"/>
</svg>
