<svg width="26" height="26" viewBox="0 0 26 26" fill="none" xmlns="http://www.w3.org/2000/svg">
<path d="M9.25863 14.6338C10.7085 16.0837 13.9094 17.9797 15.3928 17.9797C16.0434 17.9864 16.6765 17.768 17.1846 17.3615C17.6927 16.955 18.0447 16.3854 18.181 15.7491V14.6338C18.181 14.6338 16.8092 13.9646 15.9504 13.5185C15.0916 13.0724 13.7198 14.6338 13.7198 14.6338C12.676 14.2938 11.7228 13.7218 10.9316 12.9608C10.1706 12.1696 9.59867 11.2164 9.25863 10.1726C9.25863 10.1726 10.82 8.80079 10.3739 7.94202C9.92781 7.08324 9.25863 5.71143 9.25863 5.71143H8.14334C7.50705 5.84771 6.93742 6.19972 6.53092 6.70785C6.12442 7.21597 5.90603 7.84898 5.91275 8.49966C5.91275 9.98301 7.80875 13.1839 9.25863 14.6338Z" stroke="#1E1E1E" stroke-linecap="round" stroke-linejoin="round"/>
<path d="M13.1621 9.05664C13.6058 9.05664 14.0313 9.2329 14.3451 9.54663C14.6588 9.86037 14.8351 10.2859 14.8351 10.7296" stroke="#1E1E1E" stroke-linecap="round" stroke-linejoin="round"/>
<path d="M13.1621 4.59619C14.789 4.59619 16.3492 5.24246 17.4996 6.39283C18.65 7.54321 19.2962 9.10344 19.2962 10.7303" stroke="#1E1E1E" stroke-linecap="round" stroke-linejoin="round"/>
<path d="M13.1621 6.82666C14.1974 6.82666 15.1903 7.23792 15.9223 7.96998C16.6544 8.70203 17.0656 9.69491 17.0656 10.7302" stroke="#1E1E1E" stroke-linecap="round" stroke-linejoin="round"/>
<path d="M13.1623 1.25C7.0839 1.25 1.45166 2.23146 1.45166 11.2877C1.45166 17.0872 3.77147 19.5743 7.02814 20.6115V23.5224C7.00336 23.7673 7.06029 24.0135 7.19006 24.2227C7.31982 24.4318 7.51512 24.5922 7.74553 24.6787C7.97594 24.7653 8.22851 24.7732 8.46389 24.7013C8.69927 24.6293 8.90422 24.4815 9.04682 24.2808L11.6566 21.303H13.1623C19.2406 21.303 24.8729 20.3327 24.8729 11.2654C24.8729 2.198 19.2406 1.25 13.1623 1.25Z" stroke="#1E1E1E" stroke-linecap="round" stroke-linejoin="round"/>
</svg>
